<svg xmlns="http://www.w3.org/2000/svg" xmlns:xlink="http://www.w3.org/1999/xlink" viewBox="0 0 1255.76 443.23"><defs><style>.cls-1{fill:url(#Sfumatura_senza_nome_3);}.cls-2,.cls-3{fill:#fff;}.cls-3{font-size:192px;font-family:Junegull-Regular, Junegull;letter-spacing:0.02em;}</style><linearGradient id="Sfumatura_senza_nome_3" x1="553.78" y1="-17.77" x2="813.6" y2="821.6" gradientUnits="userSpaceOnUse"><stop offset="0" stop-color="#275faa"/><stop offset="0.08" stop-color="#3858a6"/><stop offset="0.24" stop-color="#65459a"/><stop offset="0.47" stop-color="#ac2689"/><stop offset="0.53" stop-color="#c21d83"/></linearGradient></defs><g id="Livello_2" data-name="Livello 2"><g id="Livello_1-2" data-name="Livello 1"><rect class="cls-1" width="1255.76" height="443.23" rx="85.81"/><path class="cls-2" d="M251.35,144.08c1.29-5.36,2.34-10.54,3.79-15.61,10.39-36.46,33.8-60.34,69.91-71.8A126.57,126.57,0,0,1,368.28,51a74.38,74.38,0,0,1,9.3.95c4.63.77,5.86,2.57,4.41,7.06-2.25,7-4.62,14-7.31,20.81-6.36,16.2-14.86,31-28.06,42.81-14.23,12.78-31,19.43-49.66,21.58-7,.81-14.17.46-21.24.1-4.67-.24-5.38-2-2.62-5.71a169.31,169.31,0,0,1,32.54-33.44c4.93-3.83,10.08-7.36,15.08-11.1,1.35-1,2.54-2.23,3.81-3.35l-.7-1.1c-6,3.37-12.3,6.4-18.08,10.17a168.68,168.68,0,0,0-35.23,30.63,61.5,61.5,0,0,0-13.76,27.84c-.71,3.26,0,4.46,3.57,4.42,15.62-.16,31.25-.35,46.87,0,17.21.43,34.42,1.12,51.33,5.13,18.26,4.33,28.48,16.55,31.72,34a248.49,248.49,0,0,1,3.65,42.41c.24,22.2-.44,44.43-1.41,66.62a149.52,149.52,0,0,1-4,27.31c-4.17,17.88-15.55,28.63-33.72,32.5C340,373.8,325,374.83,310.07,375q-62.25.48-124.49.11c-14.86-.08-29.66-1.39-44-6-18.84-6-29.49-18.63-32-38.3a481.18,481.18,0,0,1-3.08-86.68c.71-13.3,1.45-26.72,3.78-39.8,4.06-22.74,18.26-35.24,41.17-38.76,23.6-3.63,47.34-2.92,71.06-3,6.13,0,12.25.05,18.37.06,4.66,0,5.22-.61,4.17-5.27-2-9-5.52-17.27-11.7-24.34A190.35,190.35,0,0,0,186.58,94.2c-2.93-1.73-6.16-3-9.25-4.44l-.59,1c2.22,1.73,4.36,3.57,6.68,5.16,15.67,10.73,29.27,23.73,41.87,37.84a43,43,0,0,1,3.64,4.75c2.24,3.34,1.59,5.37-2.35,5.63-6.8.44-13.76,1.06-20.44.12-14-2-27.56-5.67-39.61-13.78C149.45,119,136.73,104,129.26,84.78c-3.16-8.13-6.09-16.37-8.8-24.66-2-6-.82-7.87,5.3-8.59,14.54-1.73,28.9-.1,43.07,3.21,20.12,4.71,38,13.65,52.7,28.41C237,98.65,245,117.92,249.48,138.9c.31,1.46.64,2.92,1,4.37C250.53,143.46,250.81,143.59,251.35,144.08ZM196.19,270.71h-.07q0,12.17,0,24.34c0,8.11,0,16.23,0,24.34a17.25,17.25,0,0,0,4.37,12c5.56,6.2,12.56,7,21,2.15Q264.93,308.38,308.2,283a18.31,18.31,0,0,0,5.27-4.68c5.39-7.18,2.91-15.6-6.24-20.74-29.38-16.51-58.77-33-88.31-49.21a19.75,19.75,0,0,0-10.73-2.09c-6.79.61-11.95,7.71-12,15.43C196.15,238,196.19,254.36,196.19,270.71Z"/><text class="cls-3" transform="translate(468.55 202.51)">SPRING <tspan x="0" y="165">VIDEO </tspan></text></g></g></svg>