<svg xmlns="http://www.w3.org/2000/svg" xmlns:xlink="http://www.w3.org/1999/xlink" viewBox="0 0 1027.4 443.23"><defs><style>.cls-1{fill:url(#Sfumatura_senza_nome_21);}.cls-2{fill:#fff;}</style><linearGradient id="Sfumatura_senza_nome_21" x1="358.33" y1="-3.26" x2="904.99" y2="787.92" gradientUnits="userSpaceOnUse"><stop offset="0" stop-color="#275faa"/><stop offset="0.1" stop-color="#2a5ea9"/><stop offset="0.16" stop-color="#325aa7"/><stop offset="0.22" stop-color="#4154a3"/><stop offset="0.26" stop-color="#564b9e"/><stop offset="0.31" stop-color="#714097"/><stop offset="0.35" stop-color="#92318f"/><stop offset="0.39" stop-color="#b92185"/><stop offset="0.39" stop-color="#c21d83"/></linearGradient></defs><g id="Livello_2" data-name="Livello 2"><g id="Livello_1-2" data-name="Livello 1"><rect class="cls-1" width="1027.4" height="443.23" rx="77.62"/><path class="cls-2" d="M198.81,139.27c1.28-5.36,2.33-10.54,3.78-15.61,10.39-36.46,33.8-60.34,69.92-71.8a126.48,126.48,0,0,1,43.22-5.65,72.88,72.88,0,0,1,9.31.95c4.63.77,5.85,2.57,4.4,7.06-2.25,7-4.62,14-7.31,20.81-6.36,16.2-14.86,31-28.06,42.81-14.23,12.78-31,19.43-49.66,21.58-7,.81-14.17.45-21.24.1-4.66-.24-5.38-2-2.62-5.72a169.3,169.3,0,0,1,32.55-33.43c4.92-3.83,10.07-7.37,15.08-11.1,1.35-1,2.54-2.23,3.8-3.35l-.7-1.1c-6,3.37-12.3,6.4-18.07,10.17A168.69,168.69,0,0,0,218,125.61a61.58,61.58,0,0,0-13.76,27.85c-.71,3.25,0,4.46,3.57,4.42,15.62-.16,31.26-.35,46.87,0,17.22.43,34.42,1.12,51.33,5.13,18.27,4.33,28.49,16.55,31.72,34a248.69,248.69,0,0,1,3.65,42.42c.24,22.2-.44,44.43-1.41,66.62a150.38,150.38,0,0,1-4,27.31c-4.17,17.88-15.55,28.63-33.73,32.5-14.76,3.14-29.7,4.17-44.67,4.29q-62.23.48-124.49.1c-14.86-.07-29.66-1.38-44-5.95-18.84-6-29.49-18.63-32-38.3A481.18,481.18,0,0,1,54,239.31c.72-13.31,1.46-26.72,3.79-39.8,4.05-22.75,18.25-35.25,41.17-38.77,23.59-3.62,47.33-2.91,71-3,6.13,0,12.25.05,18.38.05,4.65,0,5.21-.6,4.17-5.26-2-9-5.53-17.28-11.71-24.34A190.35,190.35,0,0,0,134,89.39c-2.93-1.73-6.16-3-9.25-4.44l-.59,1c2.22,1.73,4.37,3.57,6.69,5.16,15.67,10.72,29.26,23.73,41.86,37.84a41.8,41.8,0,0,1,3.64,4.75c2.24,3.34,1.6,5.37-2.35,5.63-6.8.44-13.76,1.06-20.44.12-14-2-27.56-5.67-39.6-13.78C96.9,114.14,84.19,99.18,76.71,80c-3.16-8.12-6.08-16.36-8.79-24.65-2-6-.83-7.87,5.29-8.59,14.54-1.73,28.9-.1,43.07,3.21,20.12,4.71,38,13.65,52.71,28.41,15.41,15.5,23.42,34.77,27.94,55.75.32,1.46.64,2.92,1,4.37C198,138.65,198.27,138.78,198.81,139.27ZM143.65,265.9h-.08v24.34c0,8.11.05,16.22,0,24.34a17.29,17.29,0,0,0,4.37,12c5.56,6.19,12.56,7,21,2.15q43.42-25.19,86.69-50.61a18.46,18.46,0,0,0,5.27-4.69c5.38-7.17,2.9-15.59-6.25-20.73-29.37-16.51-58.77-33-88.31-49.21a19.72,19.72,0,0,0-10.72-2.09c-6.8.61-12,7.7-12,15.42C143.6,233.2,143.65,249.55,143.65,265.9Z"/><path class="cls-2" d="M767.18,187.19q0,12.33,0,24.66c0,9.36.05,18.72,0,28.08,0,5.91-1.31,7.14-7.33,7.18-5,0-10,.11-15,0-4.25-.06-5.88-1.71-5.88-5.93q-.06-49.24,0-98.48c0-4.42,1.38-5.8,5.82-5.87,5.49-.08,11,.08,16.48-.17a8.79,8.79,0,0,1,8.42,4.41q18.14,27.72,36.39,55.34c.2.3.47.56,1.19,1.41.11-1.56.24-2.56.24-3.56-.08-16.84-.2-33.69-.27-50.54,0-5.32,1.51-6.84,7-6.84s11,.18,16.48.32c4.11.1,6,1.81,6.07,5.95.14,7,.1,14,.09,21q0,36.32-.1,72.63a55.15,55.15,0,0,1-.22,5.61c-.3,2.81-1.83,4.78-4.76,4.87-6.36.2-12.76.59-19.06,0-2.39-.23-5.2-2.51-6.69-4.64-12-17.2-23.71-34.58-35.51-51.91q-1.34-1.93-2.65-3.89Z"/><path class="cls-2" d="M645.7,208.36l21,30.76c2.85,4.16,1.49,7.89-3.51,8.26a140.44,140.44,0,0,1-20.2.2c-2.18-.15-4.83-2.29-6.15-4.26-5.76-8.6-11.2-17.42-16.58-26.26-2.67-4.37-6.29-6.21-11-4.24-1.3.54-2.44,3.05-2.49,4.69-.25,7.48-.05,15-.08,22.46,0,6.14-1.6,7.71-7.81,7.79-4.49.06-9,.12-13.49,0-5.11-.16-6.94-2.08-7-7.19q-.13-41.18-.18-82.35c0-5.12,0-10.23.13-15.34.1-3.94,1.91-5.62,5.87-5.62,13.87,0,27.74-.14,41.6.15,10.16.21,19.85,2.58,28,9.06C666,156,668.51,168.8,665.45,183.14a33.3,33.3,0,0,1-17.67,23.39,11.31,11.31,0,0,0-1.54,1.05A3.78,3.78,0,0,0,645.7,208.36ZM607.26,175c0,3.24.1,6.49,0,9.72-.12,3,1.11,4.42,4.16,4.31,4.61-.17,9.23-.11,13.83-.44,7.93-.58,12.34-4.86,13-12.26A13.4,13.4,0,0,0,627,161.74c-5.61-.88-11.42-.68-17.13-.56-.88,0-2.34,2.09-2.46,3.31C607,168,607.25,171.46,607.26,175Z"/><path class="cls-2" d="M928.76,183.91c6.12,0,12.25,0,18.37,0,4.65,0,6.68,1.94,6.72,6.58.09,9.49,0,19,0,28.46,0,5.44-2.45,9.88-6.18,13.63-16.38,16.51-35.85,21.26-58.06,14.75-29.35-8.6-40.64-34-38.53-61.28,1.18-15.22,7.1-28.29,18.94-38.17,12.76-10.64,27.82-13.45,44-11.77,10.68,1.11,20.39,4.68,28.78,11.52.59.47,1.2.9,1.76,1.4,5.9,5.23,5.79,7.32-.47,12.15-3.16,2.44-6.22,5-9.32,7.54-4.75,3.87-5.78,4-10.08-.3-4.63-4.61-9.84-7.29-16.56-7.48-9.2-.27-16.21,3.54-21.66,10.53-9.28,11.91-7.92,34.71,2.55,45.61a26.77,26.77,0,0,0,28.7,6.29c6.53-2.57,9.56-7.95,7.94-14.61a3.77,3.77,0,0,0-2.84-2c-4.11-.24-8.24-.07-12.36-.15s-5.68-1.7-5.75-5.7-.1-8,0-12c.08-3.65,1.63-5.14,5.36-5.17,6.25-.05,12.5,0,18.74,0Z"/><path class="cls-2" d="M796.36,316.27c.18-28.65,19.35-53.73,51.53-54.31,29.27-.52,55.23,17.38,56.45,50,1.24,33.1-19.18,57.4-52.21,58.37C822.89,371.23,796.92,353.58,796.36,316.27ZM824,317.33c.54,2.36,1,6.65,2.51,10.53,3.66,9.4,10,16.24,20.54,17.54s18.49-3.34,24.05-12c6.69-10.4,7.18-21.46,1.64-32.39-6.5-12.83-22.79-17.57-34.65-10.48C828.66,296.14,824.51,304.76,824,317.33Z"/><path class="cls-2" d="M602.78,315.79c0-14.23,0-28.47,0-42.7,0-7.87,1.31-9.19,9.16-9.08,12.74.17,25.52-.14,38.2.85,16.38,1.28,30.54,7.72,39.87,22,19,29.05,4.17,74.21-33.44,79.18-15.53,2.05-31.37,1.85-47.08,2.41-4.6.16-6.62-2.52-6.66-8.07-.08-13,0-26,0-38.95v-5.62Zm27.79.11h-.18q0,11.81,0,23.6c0,4.19,1.14,5.77,5.28,5.34,6-.62,12.26-1.25,17.93-3.22,11-3.81,17-15,16.41-28.37-.53-10.91-8-20.82-18.79-23.48-5.24-1.3-10.87-1-16.3-1.6-3.28-.36-4.48.79-4.41,4.14C630.69,300.17,630.57,308,630.57,315.9Z"/><path class="cls-2" d="M479.33,192.22c0-16.59-.05-33.19,0-49.78,0-3.94,1.64-5.65,5.42-5.58,15.84.3,31.72.24,47.51,1.31s28.52,11.93,32.07,26.1c3.82,15.26-2.39,33.08-14.72,41.63-8.12,5.63-17.56,6.78-27.1,7.29a47.23,47.23,0,0,1-10.09-.09c-3.43-.58-3.92,1-3.91,3.6,0,7.61,0,15.22,0,22.83,0,6.43-1.21,7.63-7.64,7.76-5.49.11-11,.14-16.47.12-3.53,0-5.14-1.86-5.13-5.42.05-16.59,0-33.18,0-49.77Zm29.61-17.43H509c0,3.49,0,7,0,10.45,0,2.69,1.23,3.85,3.87,3.8,3.49-.06,7,.11,10.46,0,7.92-.33,13.26-6.31,13-14.37-.27-7.73-5.67-12.92-13.47-12.92-3.48,0-7,0-10.46,0-2.34,0-3.44,1.06-3.43,3.38C509,168.33,508.94,171.56,508.94,174.79Z"/><path class="cls-2" d="M423.69,135c13,.41,24.1,3.09,33.33,11.14,5.39,4.7,5.51,7.69.75,12.85l-5.84,6.33c-5,5.38-6.49,5.58-11.53.48a17.44,17.44,0,0,0-12.34-5.39,25.37,25.37,0,0,0-7.06.7c-6,1.52-8,9.67-3.34,13.8a21.06,21.06,0,0,0,6.49,3.54c6.65,2.52,13.43,4.7,20.07,7.26,11.9,4.58,19.83,12.64,20.6,25.89.84,14.38-4.89,25.67-17.86,32.4-21.29,11.05-43.21,6-60-8.82-4.59-4-4.59-6.4-.76-11.17,2-2.53,4.14-5,6.32-7.41,4.07-4.49,6.31-4.66,10.53-.37,5.22,5.29,11.33,8.82,18.79,8.88a21,21,0,0,0,10.25-2.43,7.69,7.69,0,0,0-.07-13.56c-4.48-2.6-9.54-4.2-14.36-6.2-5.06-2.1-10.36-3.75-15.17-6.31-13-6.91-18.83-20.39-15.53-34.8s13.58-23.75,28.91-26C418.79,135.46,421.78,135.24,423.69,135Z"/><path class="cls-2" d="M712.79,316.19q0-21.9,0-43.8c0-6.21,1.5-7.62,7.79-7.63q28.67,0,57.33-.07c5.61,0,7.08,1.43,7.15,7.06,0,3.75.1,7.49,0,11.23-.13,4-2.18,5.82-6.18,5.8-11.73,0-23.47,0-35.2-.14-2.56,0-3.73,1-3.74,3.48,0,2.75.08,5.49,0,8.23-.14,3.43,1.61,4.7,4.8,4.7,9.11,0,18.23,0,27.35.06,4.84,0,6.32,1.32,6.5,6.06.13,3.36.07,6.73,0,10.09-.13,4.32-1.93,6-6.3,6.07-9.24.05-18.48,0-27.73.06-4.35,0-5,.64-5,5-.16,13.58-.22,12.46,12.39,12.44q13.11,0,26.23,0c5.57,0,6.43.85,6.53,6.56.06,3.24,0,6.49,0,9.73,0,6.47-1.35,7.87-8,7.87-9.36,0-18.73-.17-28.09-.23s-18.49-.05-27.73-.11c-6,0-7.82-1.74-7.85-7.84-.08-14.85,0-29.7,0-44.55Z"/><path class="cls-2" d="M487.69,335.35c2.17-6.49,4-12.24,6-17.94q8.25-23.85,16.61-47.66c2-5.6,2.42-5.81,8.42-5.81,5.38,0,10.75,0,16.12,0s6.9,2.11,5,7.09c-5.39,14.36-11,28.66-16.45,43-5.71,14.89-11.51,29.75-17.08,44.69-3.36,9-4,9.68-13.78,9.76-4.38,0-8.75,0-13.12-.07s-7.17-1.86-8.84-6.08q-17.91-45.42-36-90.76c-2.12-5.35-.6-7.58,5.05-7.62,6.12,0,12.25.1,18.37-.12,3.59-.12,5.63,1.41,6.72,4.65q10.91,32.25,21.84,64.47C486.73,333.5,487,334,487.69,335.35Z"/><path class="cls-2" d="M686.59,192.22c0-16,0-31.93,0-47.9,0-5.87,1.74-7.52,7.67-7.55,5.12,0,10.24,0,15.36.07,7.9,0,9.29,1.43,9.28,9.49,0,17.59-.09,35.17-.12,52.76,0,13.35.05,26.69,0,40,0,7.37-1.07,8.35-8.56,8.51-5.62.12-11.24.18-16.85.13-4.74,0-6.82-2.17-6.83-6.91q0-24.31,0-48.64Z"/><path class="cls-2" d="M582.45,315.68c0,13.6,0,27.21,0,40.81a62.3,62.3,0,0,1-.42,7.09,5,5,0,0,1-5.24,4.85c-5.74.13-11.49.21-17.23,0-3.62-.13-5.44-2.51-5.52-7.1-.16-9.36-.13-18.72-.13-28.08q0-30.51,0-61c0-7,1.27-8.25,8.3-8.25,4.38,0,8.75,0,13.12,0,5.38,0,7.18,1.73,7.18,7.17,0,12.73-.08,25.45-.12,38.18,0,2.13,0,4.25,0,6.37Z"/></g></g></svg>